# xmcd
#
# Track frame offsets:
#	150
#	16675
#	36267
#	55949
#	73720
#	86911
#	109369
#	125551
#	143617
#	158784
#	180364
#
# Disc length: 2721 seconds
#
# Revision: 1
# Processed by: cddbd v1.4PL0 Copyright (c) Steve Scherf et al.
# Submitted via: audiograbber 1.82.00
#
DISCID=910a9f0b
DTITLE=rb morris - Zeke And The Wheel
DYEAR=1999
DGENRE=Country
TTITLE0=Zeke And The Wheel  
TTITLE1=Maybe The Soul  
TTITLE2=Distillery 
TTITLE3=A Winter's Tale  
TTITLE4=Someone Was Listenin'  
TTITLE5=I've Been Waiting  
TTITLE6=You My Love  
TTITLE7=She Sings Me Songs Of Solomon  
TTITLE8=Call Me Zeke  
TTITLE9=Long Arm Of The Law  
TTITLE10=Lest We All Lose  
EXTD=
EXTT0=
EXTT1=
EXTT2=
EXTT3=
EXTT4=
EXTT5=
EXTT6=
EXTT7=
EXTT8=
EXTT9=
EXTT10=
PLAYORDER=
